<svg width="1465" height="412" viewBox="0 0 1465 412" fill="none" xmlns="http://www.w3.org/2000/svg">
<rect width="1454" height="402" transform="translate(10)" fill="white"/>
<ellipse cx="73.5657" cy="48.7621" rx="73.5657" ry="48.7621" transform="matrix(0.631218 -0.775605 -0.775605 -0.631218 179.491 211.027)" fill="#171717"/>
<path d="M38.6966 355.133C38.6966 355.133 46.4068 354.343 50.1528 348.794L59.5395 331.21L81.0034 296.336L102.351 265.452L128.924 230.144C128.924 230.144 139.643 216.046 146.427 207.835C153.212 199.624 157.092 195.3 164.078 187.829L133.429 160.319L113.969 183.823C104.121 196.184 98.7287 203.838 89.2587 218.214C73.6416 241.075 65.8692 253.965 52.7001 278.345C40.9036 299.442 34.6371 311.368 24.2513 332.86C23.212 335.292 22.7454 336.695 22.0786 339.254C21.8064 341.742 21.8325 343.101 22.1351 345.474C22.9322 347.647 23.6414 348.87 25.8159 351.066C30.4183 353.721 33.2155 355.751 38.6966 355.133Z" fill="#171717"/>
<path d="M233.857 151.461L235.224 152.464L235.7 154.091C237.951 161.787 233.567 169.6 227.496 175.501C221.179 181.64 211.824 187.028 200.772 190.321C190.037 193.828 179.454 194.985 170.917 193.801C162.743 192.668 154.579 189.014 152.264 181.096L156.883 179.745L152.264 181.096C151.535 178.605 151.801 176.087 153.085 173.866C154.259 171.837 156.067 170.426 157.793 169.417C161.194 167.428 165.92 166.079 170.726 164.985C174.569 164.111 178.884 163.315 183.213 162.516C184.415 162.295 185.617 162.073 186.81 161.849C192.302 160.82 197.696 159.736 202.509 158.388C207.302 156.478 211.023 154.844 214.001 153.511C214.546 153.268 215.073 153.03 215.585 152.8C217.841 151.785 219.774 150.915 221.374 150.304C223.323 149.56 225.473 148.909 227.763 149.054C230.248 149.211 232.198 150.245 233.857 151.461Z" fill="#171717" stroke="white" stroke-width="10"/>
<path d="M152.442 88.4625L151.119 87.4027L149.424 87.3661C141.407 87.1929 135.002 93.4565 130.881 100.852C126.594 108.548 123.822 118.981 123.514 130.509C122.917 141.787 124.549 152.306 127.911 160.243C131.13 167.841 136.779 174.776 145.027 174.954L145.131 170.142L145.027 174.954C147.622 175.01 149.984 174.1 151.795 172.282C153.449 170.621 154.343 168.509 154.868 166.58C155.905 162.779 155.98 157.865 155.787 152.939C155.632 149.001 155.28 144.627 154.926 140.239C154.828 139.022 154.73 137.803 154.636 136.593C154.203 131.022 153.848 125.532 153.899 120.534C154.498 115.409 155.109 111.392 155.622 108.169C155.716 107.58 155.808 107.009 155.897 106.455C156.291 104.013 156.629 101.92 156.803 100.216C157.015 98.1406 157.085 95.8955 156.35 93.722C155.553 91.3628 154.047 89.7486 152.442 88.4625Z" fill="#171717" stroke="white" stroke-width="10"/>
<path d="M154.017 131.58C160.744 123.312 168.671 117.002 176.251 113.607C183.536 110.344 192.057 109.185 198.227 114.206C204.398 119.227 204.996 127.806 203.282 135.602C201.499 143.714 196.932 152.758 190.204 161.025C183.477 169.293 175.55 175.603 167.97 178.998C160.685 182.261 152.164 183.42 145.994 178.399C139.823 173.378 139.225 164.799 140.939 157.003C142.722 148.892 147.289 139.848 154.017 131.58Z" fill="#171717" stroke="white" stroke-width="10"/>
<ellipse cx="73.5658" cy="48.7621" rx="73.5658" ry="48.7621" transform="matrix(0.189512 -0.981878 -0.981878 -0.189512 100.425 155.361)" fill="#171717"/>
<path d="M44.4935 348.911C44.4935 348.911 50.9138 344.569 51.5914 337.909L51.5489 317.976L53.974 277.097L58.1837 239.791L64.9051 196.114C64.9051 196.114 67.6852 178.624 69.7814 168.181C71.8776 157.738 73.2524 152.094 75.8765 142.207L35.8625 132.456L29.8273 162.368C26.994 177.917 25.861 187.211 24.313 204.356C21.3604 231.884 20.6056 246.917 20.5281 274.626C20.1078 298.794 20.2243 312.265 21.2342 336.114C21.4682 338.748 21.7203 340.205 22.3423 342.775C23.2789 345.096 23.9444 346.281 25.3331 348.23C27.063 349.768 28.2661 350.51 31.2203 351.417C36.5309 351.58 39.9558 352.047 44.4935 348.911Z" fill="#171717"/>
<path d="M120.169 77.17L121.848 77.4068L123.036 78.6156C128.658 84.3336 128.489 93.291 125.929 101.36C123.265 109.757 117.57 118.927 109.388 127.055C101.586 135.221 92.8086 141.243 84.7257 144.236C76.9874 147.102 68.0659 147.743 62.282 141.86L65.7141 138.486L62.282 141.86C60.4622 140.009 59.5059 137.666 59.5878 135.101C59.6627 132.758 60.5885 130.659 61.6322 128.954C63.6891 125.594 67.2154 122.171 70.9338 118.935C73.9069 116.347 77.3328 113.606 80.7698 110.855C81.7235 110.092 82.678 109.328 83.624 108.567C87.9764 105.064 92.2167 101.558 95.8206 98.0948C99.141 94.1455 101.647 90.947 103.642 88.364C104.006 87.892 104.359 87.4331 104.701 86.9886C106.209 85.0277 107.501 83.347 108.622 82.0524C109.988 80.4748 111.574 78.8849 113.661 77.9299C115.925 76.8933 118.132 76.8827 120.169 77.17Z" fill="#171717" stroke="white" stroke-width="10"/>
<path d="M18.6424 60.1495L16.9755 59.8412L15.4647 60.6103C8.31866 64.248 5.6356 72.7958 5.50163 81.2604C5.36222 90.0685 7.85243 100.572 13.0313 110.877C17.8372 121.097 24.249 129.594 30.9638 134.998C37.3923 140.172 45.6489 143.612 53.0011 139.869L50.8176 135.58L53.0011 139.869C55.3143 138.692 56.965 136.773 57.7013 134.315C58.3741 132.07 58.1625 129.785 57.714 127.837C56.8301 123.998 54.5728 119.632 52.0739 115.383C50.0759 111.986 47.6975 108.299 45.3113 104.599C44.6492 103.573 43.9865 102.546 43.3312 101.523C40.3159 96.8195 37.4078 92.149 35.0895 87.7211C33.1945 82.9221 31.8331 79.0934 30.7618 76.0109C30.566 75.4477 30.3771 74.9006 30.194 74.3706C29.3864 72.0323 28.6942 70.0282 28.0425 68.4448C27.2483 66.5153 26.2484 64.504 24.5732 62.9361C22.755 61.2344 20.6653 60.5237 18.6424 60.1495Z" fill="#171717" stroke="white" stroke-width="10"/>
<path d="M40.4158 97.3987C42.4349 86.9325 46.4364 77.6245 51.5104 71.0493C56.3871 64.7299 63.3477 59.68 71.159 61.1869C78.9702 62.6938 83.5528 69.9706 85.7287 77.6507C87.9926 85.6415 88.2444 95.7701 86.2253 106.236C84.2062 116.702 80.2047 126.01 75.1307 132.586C70.254 138.905 63.2934 143.955 55.4821 142.448C47.6709 140.941 43.0883 133.664 40.9124 125.984C38.6485 117.993 38.3967 107.865 40.4158 97.3987Z" fill="#171717" stroke="white" stroke-width="10"/>
<ellipse cx="73.6974" cy="49.7659" rx="73.6974" ry="49.7659" transform="matrix(0.823927 -0.566696 0.572036 0.820229 189.692 219.247)" fill="#171717"/>
<path d="M34.7297 348.42C34.7297 348.42 36.0528 340.72 41.905 337.435L60.2825 329.525L96.9242 310.97L129.532 292.18L166.96 268.515C166.96 268.515 181.911 258.956 190.656 252.843C199.401 246.73 204.027 243.201 212.04 236.819L237.7 270.125L212.664 287.663C199.523 296.497 191.435 301.257 176.288 309.533C152.163 323.255 138.631 329.951 113.141 341.073C91.0558 351.101 78.5991 356.365 56.2111 364.937C53.6872 365.77 52.2403 366.117 49.6142 366.563C47.0857 366.618 45.7166 366.472 43.3434 365.958C41.2054 364.964 40.0204 364.141 37.954 361.757C35.59 356.886 33.7327 353.888 34.7297 348.42Z" fill="#171717"/>
<path d="M253.45 169.752L252.544 168.305L250.951 167.688C243.355 164.748 235.186 168.471 228.826 174.063C222.209 179.882 216.142 188.825 212.069 199.662C207.803 210.163 205.917 220.711 206.528 229.402C207.113 237.721 210.232 246.234 218.032 249.253C220.487 250.203 223.037 250.158 225.358 249.063C227.477 248.062 229.019 246.371 230.151 244.727C232.382 241.484 234.063 236.85 235.494 232.104C236.637 228.31 237.734 224.035 238.835 219.743C239.14 218.552 239.446 217.36 239.753 216.177C241.166 210.732 242.629 205.388 244.318 200.653C246.573 195.989 248.476 192.382 250.024 189.497C250.307 188.969 250.583 188.458 250.85 187.963C252.028 185.779 253.036 183.91 253.76 182.354C254.644 180.457 255.44 178.361 255.45 176.06C255.461 173.565 254.56 171.525 253.45 169.752Z" fill="#171717" stroke="white" stroke-width="10"/>
<path d="M311.415 257.259L312.378 258.663L312.3 260.363C311.926 268.49 305.139 274.405 297.409 277.9C289.358 281.541 278.657 283.411 267.026 282.707C255.623 282.316 245.148 279.748 237.401 275.677C229.998 271.787 223.424 265.528 223.806 257.221C223.927 254.592 225.013 252.274 226.983 250.599C228.775 249.074 230.966 248.362 232.936 248.005C236.825 247.298 241.772 247.653 246.724 248.281C250.683 248.783 255.066 249.523 259.467 250.266C260.689 250.472 261.912 250.678 263.128 250.88C268.721 251.807 274.243 252.649 279.296 253.039C284.511 252.887 288.609 252.625 291.896 252.391C292.498 252.349 293.081 252.306 293.645 252.265C296.136 252.083 298.266 251.928 299.993 251.902C302.1 251.871 304.342 252 306.45 252.917C308.731 253.909 310.234 255.538 311.415 257.259Z" fill="#171717" stroke="white" stroke-width="10"/>
<path d="M268.034 251.828C276.842 245.771 283.755 238.331 287.7 230.986C291.505 223.901 293.207 215.471 288.625 208.9C284.043 202.329 275.499 200.946 267.482 201.99C259.171 203.073 249.726 206.882 240.918 212.94C232.109 218.997 225.196 226.437 221.251 233.782C217.446 240.867 215.744 249.296 220.326 255.867C224.908 262.438 233.452 263.822 241.469 262.777C249.781 261.694 259.225 257.885 268.034 251.828Z" fill="#171717" stroke="white" stroke-width="10"/>
<ellipse cx="74.0087" cy="49.5625" rx="74.0087" ry="49.5625" transform="matrix(0.997339 -0.103844 0.12219 0.989805 240.449 303.818)" fill="#171717"/>
<path d="M41.4016 343.127C41.4016 343.127 46.2191 337.04 52.9834 336.944L73.0867 338.743L114.486 339.9L152.404 338.944L196.919 336.019C196.919 336.019 214.751 334.758 225.428 333.566C236.104 332.373 241.892 331.485 252.043 329.712L259.15 370.89L228.567 374.336C212.689 375.821 203.237 376.144 185.838 376.194C157.868 376.744 142.653 376.181 114.698 373.818C90.2914 372.113 76.7109 370.809 52.7232 367.691C50.0819 367.223 48.6297 366.84 46.0801 365.987C43.8026 364.839 42.6524 364.064 40.782 362.493C39.3483 360.615 38.6818 359.337 37.9687 356.281C38.1661 350.915 37.929 347.423 41.4016 343.127Z" fill="#171717"/>
<path d="M320.615 290.822L320.492 289.13L319.366 287.84C313.997 281.689 304.969 281.068 296.662 282.935C288.02 284.877 278.39 289.804 269.64 297.327C260.877 304.464 254.211 312.77 250.646 320.639C247.232 328.173 245.987 337.073 251.505 343.395L255.246 340.157L251.505 343.395C253.24 345.383 255.529 346.548 258.11 346.69C260.468 346.821 262.639 346.076 264.425 345.177C267.945 343.405 271.633 340.16 275.15 336.699C277.962 333.932 280.959 330.723 283.968 327.502C284.803 326.608 285.639 325.714 286.472 324.827C290.303 320.749 294.132 316.782 297.874 313.453C302.086 310.454 305.485 308.209 308.227 306.426C308.729 306.101 309.216 305.785 309.688 305.48C311.769 304.133 313.55 302.98 314.931 301.966C316.614 300.73 318.316 299.278 319.414 297.274C320.604 295.101 320.766 292.893 320.615 290.822Z" fill="#171717" stroke="white" stroke-width="10"/>
<path d="M330.866 394.578L331.06 396.261L330.189 397.703C326.03 404.587 317.218 406.535 308.68 405.925C299.793 405.29 289.378 401.859 279.349 395.74C269.377 390.002 261.257 382.803 256.277 375.581C251.514 368.671 248.62 360.091 252.883 353.035C254.228 350.809 256.279 349.312 258.81 348.786C261.118 348.307 263.402 348.721 265.328 349.342C269.128 350.567 273.368 353.219 277.482 356.11C280.771 358.421 284.325 361.14 287.894 363.87C288.884 364.628 289.876 365.387 290.863 366.138C295.404 369.591 299.921 372.937 304.235 375.666C308.95 378 312.722 379.71 315.759 381.061C316.315 381.309 316.854 381.547 317.376 381.779C319.68 382.798 321.651 383.671 323.201 384.466C325.092 385.436 327.035 386.612 328.485 388.417C330.057 390.373 330.627 392.516 330.866 394.578Z" fill="#171717" stroke="white" stroke-width="10"/>
<path d="M294.813 369.308C305.512 368.195 315.175 364.982 322.153 360.449C328.875 356.082 334.395 349.535 333.417 341.605C332.438 333.675 325.463 328.427 317.848 325.552C309.943 322.567 299.742 321.421 289.043 322.534C278.345 323.647 268.681 326.86 261.703 331.393C254.982 335.76 249.461 342.307 250.44 350.237C251.418 358.167 258.393 363.415 266.008 366.29C273.913 369.275 284.115 370.421 294.813 369.308Z" fill="#171717" stroke="white" stroke-width="10"/>
<ellipse cx="25.6015" cy="22.6743" rx="25.6015" ry="22.6743" transform="matrix(0.672807 0.739818 -0.740786 0.671741 46.173 307.635)" fill="#171717"/>
<path d="M589.551 335.336C565.739 335.336 546.94 326.905 533.154 310.043C519.482 293.067 512.646 269.084 512.646 238.095C512.646 206.649 518.856 182.097 531.274 164.438C543.693 146.778 561.011 137.948 583.228 137.948C603.963 137.948 620.312 145.525 632.275 160.678C644.238 175.717 650.22 196.851 650.22 224.081V248.349H558.789C559.131 265.325 562.606 277.971 569.214 286.288C575.822 294.491 584.937 298.593 596.558 298.593C611.369 298.593 626.522 293.979 642.017 284.75V322.177C627.433 330.95 609.945 335.336 589.551 335.336ZM582.886 172.982C576.392 172.982 571.037 176.457 566.821 183.407C562.606 190.243 560.156 200.896 559.473 215.365H605.615C605.387 201.465 603.28 190.927 599.292 183.749C595.304 176.571 589.836 172.982 582.886 172.982Z" fill="#171717"/>
<path d="M673.291 258.09V218.1H759.253V258.09H673.291Z" fill="#171717"/>
<path d="M853.931 335.336C831.258 335.336 813.997 327.076 802.148 310.556C790.299 294.035 784.375 269.768 784.375 237.753C784.375 204.257 789.958 179.249 801.123 162.729C812.402 146.208 829.777 137.948 853.247 137.948C860.311 137.948 867.716 138.974 875.464 141.024C883.211 143.075 890.161 146.037 896.313 149.911L883.325 185.287C873.869 179.704 865.495 176.913 858.203 176.913C848.519 176.913 841.512 181.983 837.183 192.123C832.967 202.149 830.859 217.245 830.859 237.411C830.859 257.121 832.967 271.876 837.183 281.674C841.398 291.358 848.291 296.2 857.861 296.2C869.255 296.2 881.16 292.213 893.579 284.237V324.228C881.616 331.633 868.4 335.336 853.931 335.336Z" fill="#171717"/>
<path d="M966.382 331.918H920.923V66H966.382V331.918Z" fill="#171717"/>
<path d="M1145.65 236.386C1145.65 267.603 1139.05 291.928 1125.83 309.359C1112.61 326.677 1094.5 335.336 1071.48 335.336C1056.9 335.336 1044.03 331.348 1032.86 323.373C1021.7 315.398 1013.09 303.948 1007.06 289.022C1001.02 273.983 997.998 256.438 997.998 236.386C997.998 205.51 1004.55 181.413 1017.65 164.096C1030.75 146.664 1048.93 137.948 1072.17 137.948C1094.61 137.948 1112.44 146.835 1125.66 164.608C1138.99 182.268 1145.65 206.194 1145.65 236.386ZM1044.48 236.386C1044.48 256.21 1046.65 271.192 1050.98 281.332C1055.31 291.472 1062.26 296.542 1071.83 296.542C1090.06 296.542 1099.17 276.49 1099.17 236.386C1099.17 216.448 1096.95 201.579 1092.5 191.781C1088.18 181.869 1081.28 176.913 1071.83 176.913C1062.26 176.913 1055.31 181.869 1050.98 191.781C1046.65 201.579 1044.48 216.448 1044.48 236.386Z" fill="#171717"/>
<path d="M1208.03 331.918L1158.3 141.537H1205.47L1229.74 251.767C1230.76 256.894 1231.96 264.413 1233.33 274.325C1234.81 284.123 1235.72 291.187 1236.06 295.517H1236.74C1236.86 292.099 1237.31 287.2 1238.11 280.819C1239.02 274.439 1239.93 268.572 1240.84 263.217C1241.76 257.862 1250.53 217.302 1267.16 141.537H1314.33L1264.43 331.918H1208.03Z" fill="#171717"/>
<path d="M1404.05 335.336C1380.24 335.336 1361.44 326.905 1347.66 310.043C1333.98 293.067 1327.15 269.084 1327.15 238.095C1327.15 206.649 1333.36 182.097 1345.78 164.438C1358.2 146.778 1375.51 137.948 1397.73 137.948C1418.47 137.948 1434.81 145.525 1446.78 160.678C1458.74 175.717 1464.72 196.851 1464.72 224.081V248.349H1373.29C1373.63 265.325 1377.11 277.971 1383.72 286.288C1390.32 294.491 1399.44 298.593 1411.06 298.593C1425.87 298.593 1441.02 293.979 1456.52 284.75V322.177C1441.94 330.95 1424.45 335.336 1404.05 335.336ZM1397.39 172.982C1390.89 172.982 1385.54 176.457 1381.32 183.407C1377.11 190.243 1374.66 200.896 1373.97 215.365H1420.12C1419.89 201.465 1417.78 190.927 1413.79 183.749C1409.81 176.571 1404.34 172.982 1397.39 172.982Z" fill="#171717"/>
</svg>
